<?xml version="1.0" encoding="UTF-8" standalone="no"?>
<!-- Created with Inkscape (http://www.inkscape.org/) -->

<svg
   width="210mm"
   height="297mm"
   viewBox="0 0 210 297"
   version="1.1"
   id="svg5"
   xml:space="preserve"
   inkscape:version="1.2.2 (732a01da63, 2022-12-09)"
   sodipodi:docname="Icons.svg"
   xmlns:inkscape="http://www.inkscape.org/namespaces/inkscape"
   xmlns:sodipodi="http://sodipodi.sourceforge.net/DTD/sodipodi-0.dtd"
   xmlns="http://www.w3.org/2000/svg"
   xmlns:svg="http://www.w3.org/2000/svg"><sodipodi:namedview
     id="namedview7"
     pagecolor="#ffffff"
     bordercolor="#666666"
     borderopacity="1.0"
     inkscape:showpageshadow="2"
     inkscape:pageopacity="0.0"
     inkscape:pagecheckerboard="0"
     inkscape:deskcolor="#d1d1d1"
     inkscape:document-units="mm"
     showgrid="false"
     inkscape:zoom="0.33165719"
     inkscape:cx="-34.674358"
     inkscape:cy="1426.1714"
     inkscape:window-width="2560"
     inkscape:window-height="1369"
     inkscape:window-x="-8"
     inkscape:window-y="-8"
     inkscape:window-maximized="1"
     inkscape:current-layer="layer1" /><defs
     id="defs2" /><g
     inkscape:label="Layer 1"
     inkscape:groupmode="layer"
     id="layer1"><rect
       style="fill:#5f50e1;fill-opacity:1;stroke-width:0.0329634"
       id="rect510"
       width="42.333332"
       height="42.333332"
       x="109.297"
       y="51.845013"
       inkscape:export-xdpi="96"
       inkscape:export-ydpi="96"
       inkscape:export-filename="..\..\..\Downloads\1.png" /><path
       d="m 116.96991,85.711659 q -0.9525,0 -1.66686,-0.71436 -0.71439,-0.71439 -0.71439,-1.66689 v -20.63746 q 0,-0.9525 0.71439,-1.66689 0.71436,-0.71436 1.66686,-0.71436 h 26.9875 q 0.9525,0 1.66686,0.71436 0.71439,0.71439 0.71439,1.66689 v 20.63746 q 0,0.9525 -0.71439,1.66689 -0.71436,0.71436 -1.66686,0.71436 z m 0,-2.38125 h 26.9875 v -17.30372 h -26.9875 z m 6.35,-2.85749 -1.66688,-1.66686 4.08782,-4.12749 -4.12748,-4.12752 1.70654,-1.66686 5.79438,5.79438 z m 7.54062,0.1587 v -2.38125 h 8.73125 v 2.38125 z"
       id="path501"
       style="fill:#ffffff;stroke-width:0.0396876" /><rect
       style="fill:#5f50e1;fill-opacity:1;stroke-width:0.0706507"
       id="rect518"
       width="111.125"
       height="74.083336"
       x="72.210876"
       y="135.79996"
       inkscape:export-xdpi="96"
       inkscape:export-ydpi="96"
       inkscape:export-filename="..\..\..\Downloads\2.png" /><path
       d="m 101.91036,197.18326 q -1.82563,0 -3.194817,-1.36919 -1.369248,-1.36925 -1.369248,-3.19487 v -39.55514 q 0,-1.82562 1.369248,-3.19487 Q 100.08473,148.5 101.91036,148.5 h 51.72604 q 1.82562,0 3.19481,1.36919 1.36925,1.36925 1.36925,3.19487 v 39.55514 q 0,1.82562 -1.36925,3.19487 -1.36919,1.36919 -3.19481,1.36919 z m 0,-4.56406 h 51.72604 v -33.16547 h -51.72604 z m 12.17083,-5.47686 -3.19485,-3.19481 7.83499,-7.91103 -7.91101,-7.91108 3.27087,-3.19481 11.1059,11.10589 z m 14.45286,0.30418 v -4.56407 h 16.73489 v 4.56407 z"
       id="path526"
       style="fill:#ffffff;stroke-width:0.0760679" /><rect
       style="fill:#5f50e1;fill-opacity:1;stroke-width:0.328022"
       id="rect1082"
       width="515.9375"
       height="343.95834"
       x="-124.36047"
       y="246.72897"
       inkscape:export-xdpi="96"
       inkscape:export-ydpi="96"
       inkscape:export-filename="..\..\..\Downloads\3.png" /><path
       d="m 4.2931816,540.4163 q -9.12814,0 -15.9740896,-6.84595 -6.84624,-6.84625 -6.84624,-15.97434 V 319.82029 q 0,-9.12809 6.84624,-15.97434 Q -4.8349584,297 4.2931816,297 H 262.92337 q 9.12812,0 15.97407,6.84595 6.84625,6.84625 6.84625,15.97434 v 197.77572 q 0,9.12809 -6.84625,15.97434 -6.84595,6.84595 -15.97407,6.84595 z m 0,-22.82029 H 262.92337 V 351.76867 H 4.2931816 Z m 60.8541604,-27.38431 -15.97426,-15.97406 39.17497,-39.55517 -39.55505,-39.55535 16.35434,-15.97405 55.529448,55.5294 z m 72.264248,1.52089 v -22.82036 h 83.67451 v 22.82036 z"
       id="path1090"
       style="fill:#ffffff;stroke-width:0.380339" /></g></svg>
